<mxfile host="Electron" agent="Mozilla/5.0 (Windows NT 10.0; Win64; x64) AppleWebKit/537.36 (KHTML, like Gecko) draw.io/24.7.17 Chrome/128.0.6613.36 Electron/32.0.1 Safari/537.36" version="24.7.17">
  <diagram id="C5RBs43oDa-KdzZeNtuy" name="Page-1">
    <mxGraphModel dx="574" dy="334" grid="1" gridSize="10" guides="1" tooltips="1" connect="1" arrows="1" fold="1" page="1" pageScale="1" pageWidth="827" pageHeight="1169" math="0" shadow="0">
      <root>
        <mxCell id="WIyWlLk6GJQsqaUBKTNV-0" />
        <mxCell id="WIyWlLk6GJQsqaUBKTNV-1" parent="WIyWlLk6GJQsqaUBKTNV-0" />
        <mxCell id="zVx_qTq-GLq5Az-EMkBJ-0" value="" style="rounded=0;whiteSpace=wrap;html=1;strokeColor=none;movable=0;resizable=0;rotatable=0;deletable=0;editable=0;locked=1;connectable=0;" parent="WIyWlLk6GJQsqaUBKTNV-1" vertex="1">
          <mxGeometry x="85" width="890" height="520" as="geometry" />
        </mxCell>
        <mxCell id="zVx_qTq-GLq5Az-EMkBJ-1" value="NGINX (Frontend)" style="rounded=1;whiteSpace=wrap;html=1;fontSize=12;glass=0;strokeWidth=1;shadow=0;" parent="WIyWlLk6GJQsqaUBKTNV-1" vertex="1">
          <mxGeometry x="330" y="260" width="120" height="40" as="geometry" />
        </mxCell>
        <mxCell id="zVx_qTq-GLq5Az-EMkBJ-7" value="" style="rounded=1;whiteSpace=wrap;html=1;movable=0;resizable=0;rotatable=0;deletable=0;editable=0;locked=1;connectable=0;" parent="WIyWlLk6GJQsqaUBKTNV-1" vertex="1">
          <mxGeometry x="210" y="70" width="620" height="400" as="geometry" />
        </mxCell>
        <mxCell id="zVx_qTq-GLq5Az-EMkBJ-8" value="" style="rounded=1;whiteSpace=wrap;html=1;movable=0;resizable=0;rotatable=0;deletable=0;editable=0;locked=1;connectable=0;" parent="WIyWlLk6GJQsqaUBKTNV-1" vertex="1">
          <mxGeometry x="240" y="110.32" width="560" height="319.37" as="geometry" />
        </mxCell>
        <mxCell id="zVx_qTq-GLq5Az-EMkBJ-16" value="" style="rounded=0;whiteSpace=wrap;html=1;movable=0;resizable=0;rotatable=0;deletable=0;editable=0;locked=1;connectable=0;" parent="WIyWlLk6GJQsqaUBKTNV-1" vertex="1">
          <mxGeometry x="270" y="145" width="500" height="255" as="geometry" />
        </mxCell>
        <mxCell id="zVx_qTq-GLq5Az-EMkBJ-11" value="" style="ellipse;whiteSpace=wrap;html=1;" parent="WIyWlLk6GJQsqaUBKTNV-1" vertex="1">
          <mxGeometry x="311.25" y="178.75" width="437.5" height="202.5" as="geometry" />
        </mxCell>
        <mxCell id="zVx_qTq-GLq5Az-EMkBJ-3" value="Backend Server" style="rounded=1;whiteSpace=wrap;html=1;fontSize=12;glass=0;strokeWidth=1;shadow=0;" parent="WIyWlLk6GJQsqaUBKTNV-1" vertex="1">
          <mxGeometry x="470" y="262.5" width="120" height="40" as="geometry" />
        </mxCell>
        <mxCell id="zVx_qTq-GLq5Az-EMkBJ-4" value="Redis" style="rounded=1;whiteSpace=wrap;html=1;fontSize=12;glass=0;strokeWidth=1;shadow=0;" parent="WIyWlLk6GJQsqaUBKTNV-1" vertex="1">
          <mxGeometry x="540" y="312.5" width="120" height="40" as="geometry" />
        </mxCell>
        <mxCell id="zVx_qTq-GLq5Az-EMkBJ-5" value="Kafka" style="rounded=1;whiteSpace=wrap;html=1;fontSize=12;glass=0;strokeWidth=1;shadow=0;" parent="WIyWlLk6GJQsqaUBKTNV-1" vertex="1">
          <mxGeometry x="540" y="212.5" width="120" height="40" as="geometry" />
        </mxCell>
        <mxCell id="zVx_qTq-GLq5Az-EMkBJ-9" value="&lt;b&gt;&lt;font style=&quot;font-size: 20px;&quot;&gt;VPC&lt;/font&gt;&lt;/b&gt;" style="text;html=1;align=center;verticalAlign=middle;whiteSpace=wrap;rounded=0;" parent="WIyWlLk6GJQsqaUBKTNV-1" vertex="1">
          <mxGeometry x="500" y="40" width="60" height="30" as="geometry" />
        </mxCell>
        <mxCell id="zVx_qTq-GLq5Az-EMkBJ-10" value="&lt;span style=&quot;font-size: 20px;&quot;&gt;&lt;b&gt;Public Subnet&lt;/b&gt;&lt;/span&gt;" style="text;html=1;align=center;verticalAlign=middle;whiteSpace=wrap;rounded=0;" parent="WIyWlLk6GJQsqaUBKTNV-1" vertex="1">
          <mxGeometry x="450" y="80.32" width="160" height="30" as="geometry" />
        </mxCell>
        <mxCell id="zVx_qTq-GLq5Az-EMkBJ-12" value="&lt;b&gt;&lt;font style=&quot;font-size: 15px;&quot;&gt;Docker Containers&lt;/font&gt;&lt;/b&gt;" style="text;html=1;align=center;verticalAlign=middle;whiteSpace=wrap;rounded=0;" parent="WIyWlLk6GJQsqaUBKTNV-1" vertex="1">
          <mxGeometry x="437.5" y="153.75" width="185" height="25" as="geometry" />
        </mxCell>
        <mxCell id="zVx_qTq-GLq5Az-EMkBJ-17" value="&lt;b&gt;&lt;font style=&quot;font-size: 15px;&quot;&gt;EC2&lt;/font&gt;&lt;/b&gt;" style="text;html=1;align=center;verticalAlign=middle;whiteSpace=wrap;rounded=0;" parent="WIyWlLk6GJQsqaUBKTNV-1" vertex="1">
          <mxGeometry x="500" y="115" width="60" height="30" as="geometry" />
        </mxCell>
        <mxCell id="qZ-xUglCIWW8jO3HZ8XK-0" value="NIGINX" style="rounded=1;whiteSpace=wrap;html=1;fontSize=12;glass=0;strokeWidth=1;shadow=0;" parent="WIyWlLk6GJQsqaUBKTNV-1" vertex="1">
          <mxGeometry x="395" y="212.5" width="120" height="40" as="geometry" />
        </mxCell>
        <mxCell id="qZ-xUglCIWW8jO3HZ8XK-1" value="Keycloak" style="rounded=1;whiteSpace=wrap;html=1;fontSize=12;glass=0;strokeWidth=1;shadow=0;" parent="WIyWlLk6GJQsqaUBKTNV-1" vertex="1">
          <mxGeometry x="330" y="262.5" width="120" height="40" as="geometry" />
        </mxCell>
        <mxCell id="qZ-xUglCIWW8jO3HZ8XK-2" value="MySQL" style="rounded=1;whiteSpace=wrap;html=1;fontSize=12;glass=0;strokeWidth=1;shadow=0;" parent="WIyWlLk6GJQsqaUBKTNV-1" vertex="1">
          <mxGeometry x="395" y="312.5" width="120" height="40" as="geometry" />
        </mxCell>
        <mxCell id="qZ-xUglCIWW8jO3HZ8XK-3" value="ZooKeeper" style="rounded=1;whiteSpace=wrap;html=1;fontSize=12;glass=0;strokeWidth=1;shadow=0;" parent="WIyWlLk6GJQsqaUBKTNV-1" vertex="1">
          <mxGeometry x="610" y="262.5" width="120" height="40" as="geometry" />
        </mxCell>
      </root>
    </mxGraphModel>
  </diagram>
</mxfile>
